<svg viewBox="0 0 36 35" xmlns="http://www.w3.org/2000/svg">
	<path d="M35.5723 0.414356C35.0201 -0.137783 34.125 -0.137783 33.5728 0.414356L1.40043 32.5867C0.848293 33.1388 0.848293 34.034 1.40043 34.5861C1.67647 34.8623 2.03836 35.0002 2.40019 35.0002C2.76201 35.0002 3.12384 34.8622 3.39994 34.5861L35.5723 2.41373C36.1243 1.86166 36.1243 0.966495 35.5723 0.414356Z"/>
	<path d="M35.5722 32.5867L3.39981 0.414341C2.84774 -0.137798 1.9525 -0.137798 1.40043 0.414341C0.848293 0.966411 0.848293 1.86158 1.40043 2.41372L33.5728 34.5861C33.8489 34.8622 34.2107 35.0002 34.5726 35.0002C34.9344 35.0002 35.2963 34.8622 35.5723 34.5862C36.1243 34.034 36.1243 33.1388 35.5722 32.5867Z"/>
</svg>
