<svg xmlns="http://www.w3.org/2000/svg" viewBox="0 0 344 326">
	<path d="M96.4,326a4,4,0,0,1-4-4V244.75H36.2a4,4,0,0,1-.85-.09C23.12,242,0,229.85,0,202.92V39C0,11.67,12.92,0,43.2,0h259C327.59,0,344,15.32,344,39V209.93a3.92,3.92,0,0,1,0,.44c-1.76,15.86-13.76,34.38-41.78,34.38H175.12l-75.82,80A4,4,0,0,1,96.4,326ZM36.64,236.75H96.4a4,4,0,0,1,4,4V312l70.1-74a4,4,0,0,1,2.9-1.25H302.2c28.88,0,33.2-22.05,33.8-27V39c0-19.42-12.64-31-33.8-31H43.2C17.21,8,8,16.12,8,39v163.9C8,224.46,26.5,234.39,36.64,236.75Zm239-62H69.8a4,4,0,0,1,0-8H275.6a4,4,0,0,1,0,8Zm0-46.23H69.8a4,4,0,0,1,0-8H275.6a4,4,0,0,1,0,8ZM173.4,83.65H69.8a4,4,0,0,1,0-8H173.4a4,4,0,0,1,0,8Z"/>
</svg>
