<svg xmlns="http://www.w3.org/2000/svg" viewBox="0 0 256 256">
	<path d="M24.6,105.2c2-0.8,4.3-0.4,5.8,1.2l32.9,32.9c2.2,2.2,5.1,3.8,8.2,4.4l26.7,5.3c5.3,1.1,10.7-0.6,14.4-4.4 c3.8-3.8,5.4-9.2,4.4-14.5l-4.7-23.5h85c2.9,0,5.3-2.4,5.3-5.3s-2.4-5.3-5.3-5.3h-89.5c-0.2-0.2-0.3-0.5-0.5-0.7L86.6,74.7h110.7 c2.9,0,5.3-2.4,5.3-5.3c0-2.9-2.4-5.3-5.3-5.3H80c-1.1,0-2.1,0.4-3,1L42.4,30.4c-2.9-2.9-6.4-5.2-10.5-6.8 c-1.8-0.7-3.1-2.4-3.3-4.4c-0.2-2,0.7-3.9,2.4-5c3.5-2.3,7.6-3.5,11.7-3.5h192c11.8,0,21.3,9.6,21.3,21.3v208 c0,2.2-1.3,4.1-3.3,4.9c-0.7,0.3-1.4,0.4-2,0.4c-1.4,0-2.8-0.5-3.8-1.6L195.1,192H42.7c-11.8,0-21.3-9.6-21.3-21.3v-60.5 C21.3,108,22.6,106.1,24.6,105.2z M133.3,138.7h64c2.9,0,5.3-2.4,5.3-5.3c0-2.9-2.4-5.3-5.3-5.3h-64c-2.9,0-5.3,2.4-5.3,5.3 C128,136.3,130.4,138.7,133.3,138.7z"/>
	<path d="M20.4,32c5.4,0,10.6,2.2,14.4,6l64.9,64.9c0.8,0.7,1.3,1.7,1.5,2.7l5.3,26.7c0.4,1.8-0.2,3.6-1.5,4.8 c-1,1-2.4,1.6-3.8,1.6c-0.3,0-0.7,0-1-0.1l-26.7-5.3c-1-0.2-2-0.7-2.7-1.5L6,66.9c0,0,0,0,0,0C2.2,63,0,57.8,0,52.4 C0,41.2,9.2,32,20.4,32z M28.9,74.7l13.8-13.8l-7.5-7.5L21.3,67.1L28.9,74.7z"/>
</svg>