<svg xmlns="http://www.w3.org/2000/svg" viewBox="0 0 546.5 120.88">
	<path d="M45.74,91.78V120.5H42V99.06L42.12,98l-9.56,17.54a1.63,1.63,0,0,1-1.54,1h-.6a1.59,1.59,0,0,1-1.52-1L19.16,98a19.78,19.78,0,0,1,.12,2.1v20.4H15.54V91.78H18.7a2.41,2.41,0,0,1,.86.12,1.17,1.17,0,0,1,.6.6l9.6,17.2a12,12,0,0,1,.52,1.1q.24.58.46,1.16a19.2,19.2,0,0,1,1-2.28l9.4-17.18a1.13,1.13,0,0,1,.56-.6,2.59,2.59,0,0,1,.88-.12Zm32.76,18L74.24,98.66a24.83,24.83,0,0,1-.92-2.88q-.22.86-.46,1.6t-.44,1.32l-4.24,11.1Zm8.42,10.7H83.64a1.45,1.45,0,0,1-.92-.28,1.58,1.58,0,0,1-.52-.72l-2.54-6.66H67l-2.54,6.66a1.69,1.69,0,0,1-.52.7,1.44,1.44,0,0,1-.92.3H59.74l11.44-28.7h4.3Zm33.26-6.16a.82.82,0,0,1,.62.28l1.68,1.84a12,12,0,0,1-4.3,3.22,14.69,14.69,0,0,1-6.08,1.14,14.33,14.33,0,0,1-5.66-1.08,12.58,12.58,0,0,1-4.32-3,13.66,13.66,0,0,1-2.76-4.64,17.29,17.29,0,0,1-1-5.94,16.68,16.68,0,0,1,1-5.94,13.76,13.76,0,0,1,2.9-4.64,13.06,13.06,0,0,1,4.44-3,14.82,14.82,0,0,1,5.74-1.08,13.94,13.94,0,0,1,5.44,1A13.7,13.7,0,0,1,122,95.14l-1.4,2a1.15,1.15,0,0,1-.36.36.92.92,0,0,1-.54.14,1.62,1.62,0,0,1-.9-.38,11,11,0,0,0-1.34-.84,9.89,9.89,0,0,0-2-.86,10.37,10.37,0,0,0-3-.38,9.88,9.88,0,0,0-3.92.76,8.6,8.6,0,0,0-3.08,2.16,9.89,9.89,0,0,0-2,3.46,14.18,14.18,0,0,0-.7,4.62,13.62,13.62,0,0,0,.74,4.66,10.2,10.2,0,0,0,2,3.46,8.65,8.65,0,0,0,3.06,2.16,9.71,9.71,0,0,0,3.8.74,15.86,15.86,0,0,0,2.22-.14,9.83,9.83,0,0,0,1.82-.46,8.19,8.19,0,0,0,1.58-.76,11.16,11.16,0,0,0,1.46-1.14,1.35,1.35,0,0,1,.34-.22.77.77,0,0,1,.39-.14Zm40.5-22.56V120.5h-4.26V107.56h-15V120.5h-4.28V91.78h4.28v12.68h15V91.78Zm21.79,28.72H178.2V91.78h4.28Zm41-28.72V120.5h-2.16a1.78,1.78,0,0,1-.84-.18,2.54,2.54,0,0,1-.66-.58l-16.22-21a9.24,9.24,0,0,0,.06,1.06v20.7H200V91.78h2.2a2,2,0,0,1,.84.14,1.72,1.72,0,0,1,.62.58l16.26,21q-.06-.58-.1-1.12a6.25,6.25,0,0,1,0-1V91.78ZM258.81,117v3.46H241V91.78h17.8v3.46H245.27v9.1h10.88v3.34H245.27V117Zm23.81-11.42a9.39,9.39,0,0,0,2.88-.4,6,6,0,0,0,2.1-1.12,4.74,4.74,0,0,0,1.26-1.74,5.83,5.83,0,0,0,.42-2.24,4.42,4.42,0,0,0-1.64-3.74,7.88,7.88,0,0,0-4.88-1.26h-4v10.5ZM296,120.5h-3.8a1.77,1.77,0,0,1-1.66-.9l-7.1-10a2,2,0,0,0-.74-.7,2.56,2.56,0,0,0-1.2-.22h-2.78V120.5h-4.26V91.78h8.28a17.3,17.3,0,0,1,4.78.58A9,9,0,0,1,290.85,94a6.25,6.25,0,0,1,1.94,2.52,8.3,8.3,0,0,1,.64,3.32,8.53,8.53,0,0,1-.46,2.82,7.43,7.43,0,0,1-1.36,2.38,8.47,8.47,0,0,1-2.16,1.8,10.65,10.65,0,0,1-2.9,1.16,4.4,4.4,0,0,1,1.38,1.34Zm24.1-11.36V120.5h-4.24V109.14l-10.5-17.36h3.74a1.37,1.37,0,0,1,.9.28,2,2,0,0,1,.56.7l6.24,10.74q.38.74.68,1.4t.56,1.3q.22-.64.5-1.3t.68-1.4l6.22-10.74a2.53,2.53,0,0,1,.54-.66,1.31,1.31,0,0,1,.9-.32h3.76Zm80.36-17.36-9,28.72h-3.84l-7-21.3a10,10,0,0,1-.42-1.54q-.22.92-.42,1.54l-7.08,21.3h-3.82l-9-28.72h3.56a1.54,1.54,0,0,1,.94.28,1.21,1.21,0,0,1,.5.72L370.64,112q.16.56.28,1.22t.28,1.38q.14-.72.28-1.38a11.77,11.77,0,0,1,.36-1.22l6.48-19.22a1.4,1.4,0,0,1,.5-.7,1.52,1.52,0,0,1,.94-.3H381a1.45,1.45,0,0,1,.92.28,1.58,1.58,0,0,1,.52.72L388.88,112a22,22,0,0,1,.64,2.5q.24-1.38.52-2.5l5.68-19.22a1.25,1.25,0,0,1,.5-.7,1.52,1.52,0,0,1,.94-.3Zm40.79,14.36a16.32,16.32,0,0,1-1,5.92,13.6,13.6,0,0,1-2.9,4.64,13.17,13.17,0,0,1-4.5,3,16.22,16.22,0,0,1-11.64,0,13.19,13.19,0,0,1-4.5-3,14,14,0,0,1-2.9-4.64,17.31,17.31,0,0,1,0-11.82,13.77,13.77,0,0,1,2.9-4.64,13,13,0,0,1,4.5-3,16,16,0,0,1,11.64,0,13,13,0,0,1,4.5,3,13.35,13.35,0,0,1,2.9,4.64,16.27,16.27,0,0,1,1,5.9Zm-4.36,0a14.11,14.11,0,0,0-.7-4.6,9.71,9.71,0,0,0-2-3.46,8.51,8.51,0,0,0-3.12-2.18,10.49,10.49,0,0,0-4.08-.76,10.65,10.65,0,0,0-4.1.76,8.75,8.75,0,0,0-3.12,2.18,9.73,9.73,0,0,0-2,3.46,15.53,15.53,0,0,0,0,9.22,9.76,9.76,0,0,0,2,3.44,8.75,8.75,0,0,0,3.12,2.18,10.91,10.91,0,0,0,4.1.74,10.75,10.75,0,0,0,4.08-.74,8.51,8.51,0,0,0,3.12-2.18,9.73,9.73,0,0,0,2-3.44,14.18,14.18,0,0,0,.72-4.62Zm28.25-.52a9.39,9.39,0,0,0,2.88-.4,6,6,0,0,0,2.1-1.12,4.74,4.74,0,0,0,1.26-1.74,5.83,5.83,0,0,0,.42-2.24,4.42,4.42,0,0,0-1.64-3.74,7.88,7.88,0,0,0-4.88-1.26h-4v10.5Zm13.4,14.88h-3.8a1.77,1.77,0,0,1-1.66-.9l-7.1-10a2,2,0,0,0-.74-.7,2.56,2.56,0,0,0-1.2-.22h-2.78V120.5H457V91.78h8.28a17.3,17.3,0,0,1,4.78.58A9,9,0,0,1,473.4,94a6.25,6.25,0,0,1,1.94,2.52,8.3,8.3,0,0,1,.64,3.32,8.53,8.53,0,0,1-.46,2.82,7.42,7.42,0,0,1-1.36,2.38,8.47,8.47,0,0,1-2.16,1.8,10.65,10.65,0,0,1-2.9,1.16,4.4,4.4,0,0,1,1.38,1.34Zm18.35-16.3h1.4a3.41,3.41,0,0,0,1.22-.18,2.22,2.22,0,0,0,.86-.66l9.14-10.62a2.48,2.48,0,0,1,.9-.74,2.63,2.63,0,0,1,1.14-.22h3.64L504.57,104a4.85,4.85,0,0,1-.8.84,4.46,4.46,0,0,1-.8.54,4,4,0,0,1,1.92,1.54L516,120.5h-3.7a3.6,3.6,0,0,1-.7-.06,2.43,2.43,0,0,1-.5-.16,2.53,2.53,0,0,1-.38-.28,2.19,2.19,0,0,1-.3-.38L501,108.42a3.3,3.3,0,0,0-.4-.44,1.48,1.48,0,0,0-.46-.28,2,2,0,0,0-.6-.16,4.66,4.66,0,0,0-.8-.06H497v13H492.7V91.78H497Zm47.76-7.74a1.62,1.62,0,0,1-.42.5.93.93,0,0,1-.56.16,1.49,1.49,0,0,1-.82-.32,12,12,0,0,0-1.16-.74,7.83,7.83,0,0,0-1.64-.74,6.91,6.91,0,0,0-2.3-.34,6.64,6.64,0,0,0-2.22.34,4.46,4.46,0,0,0-1.58.9,3.75,3.75,0,0,0-1,1.34,4.24,4.24,0,0,0-.32,1.66,3.07,3.07,0,0,0,.58,1.92,5.2,5.2,0,0,0,1.56,1.3,12.22,12.22,0,0,0,2.18.94l2.5.84a23.78,23.78,0,0,1,2.5,1,8.66,8.66,0,0,1,2.18,1.42,6.23,6.23,0,0,1,1.54,2.08,6.76,6.76,0,0,1,.6,3,9.55,9.55,0,0,1-.66,3.56,8.25,8.25,0,0,1-1.88,2.9,8.88,8.88,0,0,1-3.06,2,11.24,11.24,0,0,1-4.1.7,12.67,12.67,0,0,1-2.68-.28,13.14,13.14,0,0,1-2.46-.74,13.7,13.7,0,0,1-2.18-1.18,11.3,11.3,0,0,1-1.8-1.56l1.22-2a1.71,1.71,0,0,1,.42-.4,1.08,1.08,0,0,1,.58-.16,1.61,1.61,0,0,1,1,.44q.56.44,1.36,1a11.38,11.38,0,0,0,1.94,1,7.69,7.69,0,0,0,2.76.44,7.57,7.57,0,0,0,2.36-.34,4.93,4.93,0,0,0,1.74-1,4.39,4.39,0,0,0,1.1-1.58,5.3,5.3,0,0,0,.38-2,3.42,3.42,0,0,0-.58-2.06,4.74,4.74,0,0,0-1.54-1.34A11.27,11.27,0,0,0,538,108l-2.5-.78a21.24,21.24,0,0,1-2.5-1,8.25,8.25,0,0,1-2.18-1.4,6.52,6.52,0,0,1-1.54-2.18,8,8,0,0,1-.58-3.24,7.68,7.68,0,0,1,.6-3A7.51,7.51,0,0,1,531,93.86a8.51,8.51,0,0,1,2.84-1.78,10.17,10.17,0,0,1,3.84-.68,12.23,12.23,0,0,1,4.44.78,10.18,10.18,0,0,1,3.54,2.2Z"/>
	<path d="M496,.5H477.5L500,31.66c2.5,3.06,1.5,4.6,0,6.64L474.5,71.5H495l12-20.94a5.23,5.23,0,0,1,7,0L525.5,71.5h21L521,38.3c-1.6-2.86-1.5-4.09,0-6.64L544,.5H526.5l-12,17.88a4.93,4.93,0,0,1-7.5,0Z"/>
	<path d="M406.5.5V71h17V37L444,71h15V.5H442v37L420,.5Z"/>
	<path d="M400,.5H362.5V71H417V58H380.5V43.5h17V29H380V16h20Z"/>
	<path d="M318,.5v70h17.5v-25h20V29h-20V16h29V.5Z"/>
	<path d="M262,0c15.5,0,22,11,22,18.5V20H271c-1.6-5.6-4.5-7-9-7-4.5.5-6.5,2.5-7,6.5-.6,6,8,9,15.5,12.5C282,38,284,41,284,53c0,11.5-10.5,19-22,19-22,0-23.5-15-23.5-22.5H252c0,9.14,6,9,9.5,9s8-2,8-7c0-6-3-8.5-9-10C238.5,36,241,23.5,241,19,241,11.5,245,0,262,0Z"/>
	<path d="M45,0H0V16H16V71H31.5V16H45Z"/>
	<path d="M76.5,71V0h-15L21,71H39l6.5-9.5h15V71Zm-16-41.5v22H49Z"/>
	<path d="M235.5,71V0h-16L179,71h17l6.5-9.5h17V71Zm-16-41.5v22H207Z"/>
	<path d="M100.5,0H84V54.5C84,62,94.2,71,111,71s25-10,25-16.5V0H120V50c0,2.17-2,7-10,7s-9.67-4.83-9.5-7Z"/>
	<path d="M175,45.5c7.5.5,19-2.7,19-21.5,0-21-12.5-24-23-24H142.5V71h16V48.5L175,71h21.5Zm-5.5-10h-11V16h11a8.86,8.86,0,0,1,8.5,9C178,31.4,175,35.5,169.5,35.5Z"/>
	<circle cx="300.5" cy="36" r="8.5"/>
	<rect x="465" y="0.5" width="16" height="71"/>
</svg>
