<svg xmlns="http://www.w3.org/2000/svg" viewBox="0 0 370.88 238.56">
	<path d="M355.6,0H15.28A15.28,15.28,0,0,0,0,15.28v208a15.28,15.28,0,0,0,15.28,15.28H355.6a15.28,15.28,0,0,0,15.28-15.28v-208A15.28,15.28,0,0,0,355.6,0ZM15.28,12H355.6a3.28,3.28,0,0,1,3.12,2.32L185.44,122.56,12.16,14.32A3.28,3.28,0,0,1,15.28,12ZM12,28l124.64,77.84L12,204.72ZM358.88,223.2a3.28,3.28,0,0,1-3.28,3.28H15.28A3.28,3.28,0,0,1,12,223.2V220L147.44,113l34.8,21.76a6,6,0,0,0,6.4,0L223.44,113,358.88,220Zm0-18.48-125-98.56,125-77.44Z"/>
</svg>
