<svg xmlns="http://www.w3.org/2000/svg" viewBox="0 0 304.56 472.81">
	<path d="M274.62,0H29.93A30,30,0,0,0,0,29.93V442.88a30,30,0,0,0,29.93,29.93H274.62a30,30,0,0,0,29.93-29.93V29.93A30,30,0,0,0,274.62,0ZM15,75.24H289.56V387.92H15ZM29.93,15H274.62a15,15,0,0,1,14.93,14.93v35.3H15V29.93A15,15,0,0,1,29.93,15ZM274.62,457.81H29.93A15,15,0,0,1,15,442.88v-45H289.55v45A15,15,0,0,1,274.62,457.81Z"/>
	<path d="M152.28,404.55a24.56,24.56,0,1,0,24.56,24.57A24.59,24.59,0,0,0,152.28,404.55Zm0,39.13a14.56,14.56,0,1,1,14.56-14.56A14.58,14.58,0,0,1,152.28,443.68Z"/>
	<path d="M118.28,47.65h68a5,5,0,0,0,0-10h-68a5,5,0,0,0,0,10Z"/>
	<path d="M100.28,47.65a5,5,0,1,0-3.54-1.46A5,5,0,0,0,100.28,47.65Z"/>
</svg>
